<mxfile host="65bd71144e">
    <diagram id="dPzF4iebmM-cbbbo0TP5" name="Search Engine">
        <mxGraphModel dx="1238" dy="654" grid="1" gridSize="10" guides="1" tooltips="1" connect="1" arrows="1" fold="1" page="1" pageScale="1" pageWidth="850" pageHeight="1100" math="0" shadow="0">
            <root>
                <mxCell id="OzikpktiN2Qh5DX7MhZS-0"/>
                <mxCell id="OzikpktiN2Qh5DX7MhZS-1" parent="OzikpktiN2Qh5DX7MhZS-0"/>
                <mxCell id="OzikpktiN2Qh5DX7MhZS-19" value="" style="rounded=0;whiteSpace=wrap;html=1;fillColor=#FFFFCC;" parent="OzikpktiN2Qh5DX7MhZS-1" vertex="1">
                    <mxGeometry x="380" y="70" width="280" height="490" as="geometry"/>
                </mxCell>
                <mxCell id="6" value="" style="rounded=0;whiteSpace=wrap;html=1;" parent="OzikpktiN2Qh5DX7MhZS-1" vertex="1">
                    <mxGeometry x="385" y="220" width="135" height="330" as="geometry"/>
                </mxCell>
                <mxCell id="5" style="edgeStyle=orthogonalEdgeStyle;rounded=0;orthogonalLoop=1;jettySize=auto;html=1;exitX=0;exitY=0.75;exitDx=0;exitDy=0;entryX=1;entryY=0.75;entryDx=0;entryDy=0;" parent="OzikpktiN2Qh5DX7MhZS-1" source="OzikpktiN2Qh5DX7MhZS-2" target="1" edge="1">
                    <mxGeometry relative="1" as="geometry"/>
                </mxCell>
                <mxCell id="21" style="edgeStyle=orthogonalEdgeStyle;rounded=0;orthogonalLoop=1;jettySize=auto;html=1;exitX=1;exitY=0.5;exitDx=0;exitDy=0;" parent="OzikpktiN2Qh5DX7MhZS-1" source="OzikpktiN2Qh5DX7MhZS-2" target="OzikpktiN2Qh5DX7MhZS-3" edge="1">
                    <mxGeometry relative="1" as="geometry"/>
                </mxCell>
                <mxCell id="OzikpktiN2Qh5DX7MhZS-2" value="Web portal" style="rounded=0;whiteSpace=wrap;html=1;" parent="OzikpktiN2Qh5DX7MhZS-1" vertex="1">
                    <mxGeometry x="390" y="130" width="120" height="60" as="geometry"/>
                </mxCell>
                <mxCell id="OzikpktiN2Qh5DX7MhZS-3" value="" style="rounded=0;whiteSpace=wrap;html=1;" parent="OzikpktiN2Qh5DX7MhZS-1" vertex="1">
                    <mxGeometry x="537.5" y="130" width="115" height="60" as="geometry"/>
                </mxCell>
                <mxCell id="OzikpktiN2Qh5DX7MhZS-5" value="React.js" style="rounded=0;whiteSpace=wrap;html=1;" parent="OzikpktiN2Qh5DX7MhZS-1" vertex="1">
                    <mxGeometry x="390" y="300" width="120" height="50" as="geometry"/>
                </mxCell>
                <mxCell id="OzikpktiN2Qh5DX7MhZS-11" value="Javascript Runtime" style="rounded=0;whiteSpace=wrap;html=1;" parent="OzikpktiN2Qh5DX7MhZS-1" vertex="1">
                    <mxGeometry x="390" y="360" width="120" height="50" as="geometry"/>
                </mxCell>
                <mxCell id="OzikpktiN2Qh5DX7MhZS-12" value="Next.js" style="rounded=0;whiteSpace=wrap;html=1;" parent="OzikpktiN2Qh5DX7MhZS-1" vertex="1">
                    <mxGeometry x="390" y="240" width="120" height="50" as="geometry"/>
                </mxCell>
                <mxCell id="OzikpktiN2Qh5DX7MhZS-13" value="" style="endArrow=none;html=1;exitX=0.5;exitY=0;exitDx=0;exitDy=0;entryX=0.5;entryY=1;entryDx=0;entryDy=0;" parent="OzikpktiN2Qh5DX7MhZS-1" source="OzikpktiN2Qh5DX7MhZS-12" target="OzikpktiN2Qh5DX7MhZS-2" edge="1">
                    <mxGeometry width="50" height="50" relative="1" as="geometry">
                        <mxPoint x="610" y="310" as="sourcePoint"/>
                        <mxPoint x="660" y="260" as="targetPoint"/>
                    </mxGeometry>
                </mxCell>
                <mxCell id="OzikpktiN2Qh5DX7MhZS-14" value="" style="endArrow=none;html=1;exitX=0.5;exitY=0;exitDx=0;exitDy=0;entryX=0.5;entryY=1;entryDx=0;entryDy=0;" parent="OzikpktiN2Qh5DX7MhZS-1" source="OzikpktiN2Qh5DX7MhZS-5" target="OzikpktiN2Qh5DX7MhZS-12" edge="1">
                    <mxGeometry width="50" height="50" relative="1" as="geometry">
                        <mxPoint x="440" y="330" as="sourcePoint"/>
                        <mxPoint x="490" y="280" as="targetPoint"/>
                    </mxGeometry>
                </mxCell>
                <mxCell id="OzikpktiN2Qh5DX7MhZS-15" value="" style="endArrow=none;html=1;exitX=0.5;exitY=0;exitDx=0;exitDy=0;entryX=0.5;entryY=1;entryDx=0;entryDy=0;" parent="OzikpktiN2Qh5DX7MhZS-1" source="OzikpktiN2Qh5DX7MhZS-11" target="OzikpktiN2Qh5DX7MhZS-5" edge="1">
                    <mxGeometry width="50" height="50" relative="1" as="geometry">
                        <mxPoint x="610" y="300" as="sourcePoint"/>
                        <mxPoint x="450" y="340" as="targetPoint"/>
                    </mxGeometry>
                </mxCell>
                <mxCell id="OzikpktiN2Qh5DX7MhZS-20" value="Project Gyujanggak" style="text;html=1;strokeColor=none;fillColor=none;align=center;verticalAlign=middle;whiteSpace=wrap;rounded=0;" parent="OzikpktiN2Qh5DX7MhZS-1" vertex="1">
                    <mxGeometry x="385" y="90" width="130" height="20" as="geometry"/>
                </mxCell>
                <mxCell id="4" style="edgeStyle=orthogonalEdgeStyle;rounded=0;orthogonalLoop=1;jettySize=auto;html=1;exitX=1;exitY=0.25;exitDx=0;exitDy=0;entryX=0;entryY=0.25;entryDx=0;entryDy=0;" parent="OzikpktiN2Qh5DX7MhZS-1" source="1" target="OzikpktiN2Qh5DX7MhZS-2" edge="1">
                    <mxGeometry relative="1" as="geometry"/>
                </mxCell>
                <mxCell id="1" value="Brower" style="rounded=0;whiteSpace=wrap;html=1;" parent="OzikpktiN2Qh5DX7MhZS-1" vertex="1">
                    <mxGeometry x="190" y="130" width="160" height="60" as="geometry"/>
                </mxCell>
                <mxCell id="7" value="Server" style="rounded=0;whiteSpace=wrap;html=1;" parent="OzikpktiN2Qh5DX7MhZS-1" vertex="1">
                    <mxGeometry x="390" y="430" width="120" height="50" as="geometry"/>
                </mxCell>
                <mxCell id="8" value="" style="endArrow=none;html=1;exitX=0.5;exitY=0;exitDx=0;exitDy=0;entryX=0.5;entryY=1;entryDx=0;entryDy=0;" parent="OzikpktiN2Qh5DX7MhZS-1" source="7" target="OzikpktiN2Qh5DX7MhZS-11" edge="1">
                    <mxGeometry width="50" height="50" relative="1" as="geometry">
                        <mxPoint x="250" y="440" as="sourcePoint"/>
                        <mxPoint x="450" y="400" as="targetPoint"/>
                    </mxGeometry>
                </mxCell>
                <mxCell id="9" value="&lt;font style=&quot;font-size: 18px&quot;&gt;Versel&lt;/font&gt;" style="text;html=1;strokeColor=none;fillColor=none;align=center;verticalAlign=middle;whiteSpace=wrap;rounded=0;" parent="OzikpktiN2Qh5DX7MhZS-1" vertex="1">
                    <mxGeometry x="410" y="510" width="80" height="20" as="geometry"/>
                </mxCell>
                <mxCell id="19" value="File" style="text;html=1;strokeColor=none;fillColor=none;align=center;verticalAlign=middle;whiteSpace=wrap;rounded=0;" parent="OzikpktiN2Qh5DX7MhZS-1" vertex="1">
                    <mxGeometry x="575" y="150" width="40" height="20" as="geometry"/>
                </mxCell>
            </root>
        </mxGraphModel>
    </diagram>
    <diagram id="f9cJKZpROqkz0lS0y9gb" name="Page-1">
        <mxGraphModel dx="686" dy="433" grid="1" gridSize="10" guides="1" tooltips="1" connect="1" arrows="1" fold="1" page="1" pageScale="1" pageWidth="850" pageHeight="1100" background="#F4F1DE" math="0" shadow="0">
            <root>
                <mxCell id="0"/>
                <mxCell id="1" parent="0"/>
                <mxCell id="11" style="edgeStyle=orthogonalEdgeStyle;curved=0;rounded=1;sketch=0;orthogonalLoop=1;jettySize=auto;html=1;exitX=0;exitY=0.5;exitDx=0;exitDy=0;entryX=1;entryY=0.5;entryDx=0;entryDy=0;strokeColor=#E07A5F;fillColor=#F2CC8F;fontColor=#393C56;" parent="1" source="9" target="4" edge="1">
                    <mxGeometry relative="1" as="geometry"/>
                </mxCell>
                <mxCell id="9" value="" style="rounded=1;whiteSpace=wrap;html=1;fillColor=#F2CC8F;strokeColor=#E07A5F;fontColor=#393C56;" parent="1" vertex="1">
                    <mxGeometry x="560" y="120" width="190" height="110" as="geometry"/>
                </mxCell>
                <mxCell id="2" value="EC2" style="rounded=0;whiteSpace=wrap;html=1;fillColor=#F2CC8F;strokeColor=#E07A5F;fontColor=#393C56;" parent="1" vertex="1">
                    <mxGeometry x="40" y="150" width="120" height="60" as="geometry"/>
                </mxCell>
                <mxCell id="13" style="edgeStyle=orthogonalEdgeStyle;curved=0;rounded=1;sketch=0;orthogonalLoop=1;jettySize=auto;html=1;exitX=0;exitY=0.5;exitDx=0;exitDy=0;entryX=1;entryY=0.5;entryDx=0;entryDy=0;strokeColor=#E07A5F;fillColor=#F2CC8F;fontColor=#393C56;" parent="1" source="3" target="2" edge="1">
                    <mxGeometry relative="1" as="geometry"/>
                </mxCell>
                <mxCell id="3" value="Lamda" style="rounded=1;whiteSpace=wrap;html=1;fillColor=#F2CC8F;strokeColor=#E07A5F;fontColor=#393C56;" parent="1" vertex="1">
                    <mxGeometry x="205" y="150" width="120" height="60" as="geometry"/>
                </mxCell>
                <mxCell id="12" style="edgeStyle=orthogonalEdgeStyle;curved=0;rounded=1;sketch=0;orthogonalLoop=1;jettySize=auto;html=1;exitX=0;exitY=0.5;exitDx=0;exitDy=0;entryX=1;entryY=0.5;entryDx=0;entryDy=0;strokeColor=#E07A5F;fillColor=#F2CC8F;fontColor=#393C56;" parent="1" source="4" target="3" edge="1">
                    <mxGeometry relative="1" as="geometry"/>
                </mxCell>
                <mxCell id="4" value="Simple Notification Service" style="rounded=1;whiteSpace=wrap;html=1;fillColor=#F2CC8F;strokeColor=#E07A5F;fontColor=#393C56;" parent="1" vertex="1">
                    <mxGeometry x="375" y="150" width="120" height="60" as="geometry"/>
                </mxCell>
                <mxCell id="6" value="알람을 받고 삭제를 한다." style="text;html=1;strokeColor=none;fillColor=none;align=center;verticalAlign=middle;whiteSpace=wrap;rounded=0;fontColor=#393C56;" parent="1" vertex="1">
                    <mxGeometry x="190" y="220" width="150" height="20" as="geometry"/>
                </mxCell>
                <mxCell id="7" value="어떤 상태를 인식한다." style="text;html=1;strokeColor=none;fillColor=none;align=center;verticalAlign=middle;whiteSpace=wrap;rounded=0;fontColor=#393C56;" parent="1" vertex="1">
                    <mxGeometry x="360" y="220" width="150" height="20" as="geometry"/>
                </mxCell>
                <mxCell id="8" value="Budget" style="rounded=1;whiteSpace=wrap;html=1;fillColor=#F2CC8F;strokeColor=#E07A5F;fontColor=#393C56;" parent="1" vertex="1">
                    <mxGeometry x="600" y="160" width="120" height="60" as="geometry"/>
                </mxCell>
                <mxCell id="10" value="Billing" style="text;html=1;strokeColor=none;fillColor=none;align=center;verticalAlign=middle;whiteSpace=wrap;rounded=0;fontColor=#393C56;" parent="1" vertex="1">
                    <mxGeometry x="580" y="130" width="40" height="20" as="geometry"/>
                </mxCell>
            </root>
        </mxGraphModel>
    </diagram>
</mxfile>